<?xml version="1.0" encoding="utf-8"?>
<!-- Generator: Adobe Illustrator 20.1.0, SVG Export Plug-In . SVG Version: 6.00 Build 0)  -->
<svg version="1.1" id="Layer_1" xmlns="http://www.w3.org/2000/svg" xmlns:xlink="http://www.w3.org/1999/xlink" x="0px" y="0px"
	 viewBox="0 0 1200 829.3" style="enable-background:new 0 0 1200 829.3;" xml:space="preserve">
<style type="text/css">
	.st0{fill:#C70000;stroke:#FFFFFF;stroke-miterlimit:10;}
	.st1{enable-background:new    ;}
	.st2{fill:#222222;}
	.st3{font-family:'Guardian Text Sans Web';}
	.st4{font-size:24px;}
	.st5{font-family:'GuardianIcons-Regular';}
	.st6{fill:#999999;}
</style>
<g id="DELAWARE">
	<polygon class="st0" points="894.5,310.8 906,304.2 917.5,310.8 917.5,324.1 906,330.7 894.5,324.1 	"/>
	<polygon class="st0" points="917.5,310.8 929,304.2 940.5,310.8 940.5,324.1 929,330.7 917.5,324.1 	"/>
	<polygon class="st0" points="940.5,310.8 952,304.2 963.5,310.8 963.5,324.1 952,330.7 940.5,324.1 	"/>
</g>
<g id="DISTRICT_OF_COLUMBIA">
	<polygon class="st0" points="917.5,430.3 929,423.7 940.5,430.3 940.5,443.6 929,450.2 917.5,443.6 	"/>
	<polygon class="st0" points="906,450.2 917.5,443.6 929,450.2 929,463.5 917.5,470.2 906,463.5 	"/>
	<polygon class="st0" points="940.5,430.3 952,423.7 963.5,430.3 963.5,443.6 952,450.2 940.5,443.6 	"/>
</g>
<g id="FLORIDA">
	<polygon class="st0" points="641.5,669.3 653,662.7 664.5,669.3 664.5,682.6 653,689.3 641.5,682.6 	"/>
	<polygon class="st0" points="664.5,669.3 676,662.7 687.5,669.3 687.5,682.6 676,689.3 664.5,682.6 	"/>
	<polygon class="st0" points="676,689.3 687.5,682.6 699,689.3 699,702.5 687.5,709.2 676,702.5 	"/>
	<polygon class="st0" points="722,808.8 733.5,802.1 745,808.8 745,822.1 733.5,828.7 722,822.1 	"/>
	<polygon class="st0" points="687.5,669.3 699,662.7 710.5,669.3 710.5,682.6 699,689.3 687.5,682.6 	"/>
	<polygon class="st0" points="699,689.3 710.5,682.6 722,689.3 722,702.5 710.5,709.2 699,702.5 	"/>
	<polygon class="st0" points="687.5,709.2 699,702.5 710.5,709.2 710.5,722.5 699,729.1 687.5,722.5 	"/>
	<polygon class="st0" points="699,729.1 710.5,722.5 722,729.1 722,742.4 710.5,749 699,742.4 	"/>
	<polygon class="st0" points="745,808.8 756.5,802.1 768,808.8 768,822.1 756.5,828.7 745,822.1 	"/>
	<polygon class="st0" points="699,768.9 710.5,762.3 722,768.9 722,782.2 710.5,788.9 699,782.2 	"/>
	<polygon class="st0" points="710.5,669.3 722,662.7 733.5,669.3 733.5,682.6 722,689.3 710.5,682.6 	"/>
	<polygon class="st0" points="722,689.3 733.5,682.6 745,689.3 745,702.5 733.5,709.2 722,702.5 	"/>
	<polygon class="st0" points="710.5,709.2 722,702.5 733.5,709.2 733.5,722.5 722,729.1 710.5,722.5 	"/>
	<polygon class="st0" points="722,729.1 733.5,722.5 745,729.1 745,742.4 733.5,749 722,742.4 	"/>
	<polygon class="st0" points="710.5,749 722,742.4 733.5,749 733.5,762.3 722,768.9 710.5,762.3 	"/>
	<polygon class="st0" points="722,768.9 733.5,762.3 745,768.9 745,782.2 733.5,788.9 722,782.2 	"/>
	<polygon class="st0" points="710.5,788.9 722,782.2 733.5,788.9 733.5,802.1 722,808.8 710.5,802.1 	"/>
	<polygon class="st0" points="733.5,669.3 745,662.7 756.5,669.3 756.5,682.6 745,689.3 733.5,682.6 	"/>
	<polygon class="st0" points="745,689.3 756.5,682.6 768,689.3 768,702.5 756.5,709.2 745,702.5 	"/>
	<polygon class="st0" points="733.5,709.2 745,702.5 756.5,709.2 756.5,722.5 745,729.1 733.5,722.5 	"/>
	<polygon class="st0" points="745,729.1 756.5,722.5 768,729.1 768,742.4 756.5,749 745,742.4 	"/>
	<polygon class="st0" points="733.5,749 745,742.4 756.5,749 756.5,762.3 745,768.9 733.5,762.3 	"/>
	<polygon class="st0" points="745,768.9 756.5,762.3 768,768.9 768,782.2 756.5,788.9 745,782.2 	"/>
	<polygon class="st0" points="733.5,788.9 745,782.2 756.5,788.9 756.5,802.1 745,808.8 733.5,802.1 	"/>
	<polygon class="st0" points="653,689.3 664.5,682.6 676,689.3 676,702.5 664.5,709.2 653,702.5 	"/>
	<polygon class="st0" points="630,689.3 641.5,682.6 653,689.3 653,702.5 641.5,709.2 630,702.5 	"/>
	<polygon class="st0" points="756.5,749 768,742.4 779.5,749 779.5,762.3 768,768.9 756.5,762.3 	"/>
	<polygon class="st0" points="618.5,669.3 630,662.7 641.5,669.3 641.5,682.6 630,689.3 618.5,682.6 	"/>
	<polygon class="st0" points="756.5,788.9 768,782.2 779.5,788.9 779.5,802.1 768,808.8 756.5,802.1 	"/>
</g>
<g id="GEORGIA">
	<polygon class="st0" points="618.5,589.7 630,583 641.5,589.7 641.5,603 630,609.6 618.5,603 	"/>
	<polygon class="st0" points="630,569.8 641.5,563.1 653,569.8 653,583 641.5,589.7 630,583 	"/>
	<polygon class="st0" points="641.5,589.7 653,583 664.5,589.7 664.5,603 653,609.6 641.5,603 	"/>
	<polygon class="st0" points="630,609.6 641.5,603 653,609.6 653,622.9 641.5,629.5 630,622.9 	"/>
	<polygon class="st0" points="641.5,629.5 653,622.9 664.5,629.5 664.5,642.8 653,649.4 641.5,642.8 	"/>
	<polygon class="st0" points="653,569.8 664.5,563.1 676,569.8 676,583 664.5,589.7 653,583 	"/>
	<polygon class="st0" points="664.5,589.7 676,583 687.5,589.7 687.5,603 676,609.6 664.5,603 	"/>
	<polygon class="st0" points="653,609.6 664.5,603 676,609.6 676,622.9 664.5,629.5 653,622.9 	"/>
	<polygon class="st0" points="664.5,629.5 676,622.9 687.5,629.5 687.5,642.8 676,649.4 664.5,642.8 	"/>
	<polygon class="st0" points="676,569.8 687.5,563.1 699,569.8 699,583 687.5,589.7 676,583 	"/>
	<polygon class="st0" points="641.5,549.8 653,543.2 664.5,549.8 664.5,563.1 653,569.8 641.5,563.1 	"/>
	<polygon class="st0" points="676,609.6 687.5,603 699,609.6 699,622.9 687.5,629.5 676,622.9 	"/>
	<polygon class="st0" points="687.5,629.5 699,622.9 710.5,629.5 710.5,642.8 699,649.4 687.5,642.8 	"/>
	<polygon class="st0" points="664.5,549.8 676,543.2 687.5,549.8 687.5,563.1 676,569.8 664.5,563.1 	"/>
	<polygon class="st0" points="710.5,629.5 722,622.9 733.5,629.5 733.5,642.8 722,649.4 710.5,642.8 	"/>
	<polygon class="st0" points="653,529.9 664.5,523.3 676,529.9 676,543.2 664.5,549.8 653,543.2 	"/>
</g>
<g id="HAWAII">
	<polygon class="st0" points="124,729.1 135.5,722.5 147,729.1 147,742.4 135.5,749 124,742.4 	"/>
	<polygon class="st0" points="158.5,749 170,742.4 181.5,749 181.5,762.3 170,768.9 158.5,762.3 	"/>
	<polygon class="st0" points="193,768.9 204.5,762.3 216,768.9 216,782.2 204.5,788.9 193,782.2 	"/>
	<polygon class="st0" points="181.5,788.9 193,782.2 204.5,788.9 204.5,802.1 193,808.8 181.5,802.1 	"/>
</g>
<g id="IDAHO">
	<polygon class="st0" points="239,290.9 250.5,284.3 262,290.9 262,304.2 250.5,310.8 239,304.2 	"/>
	<polygon class="st0" points="216,330.7 227.5,324.1 239,330.7 239,344 227.5,350.7 216,344 	"/>
	<polygon class="st0" points="227.5,310.8 239,304.2 250.5,310.8 250.5,324.1 239,330.7 227.5,324.1 	"/>
	<polygon class="st0" points="239,330.7 250.5,324.1 262,330.7 262,344 250.5,350.7 239,344 	"/>
</g>
<g id="ILLINOIS">
	<polygon class="st0" points="572.5,350.7 584,344 595.5,350.7 595.5,363.9 584,370.6 572.5,363.9 	"/>
	<polygon class="st0" points="572.5,390.5 584,383.8 595.5,390.5 595.5,403.8 584,410.4 572.5,403.8 	"/>
	<polygon class="st0" points="595.5,310.8 607,304.2 618.5,310.8 618.5,324.1 607,330.7 595.5,324.1 	"/>
	<polygon class="st0" points="584,330.7 595.5,324.1 607,330.7 607,344 595.5,350.7 584,344 	"/>
	<polygon class="st0" points="595.5,350.7 607,344 618.5,350.7 618.5,363.9 607,370.6 595.5,363.9 	"/>
	<polygon class="st0" points="584,370.6 595.5,363.9 607,370.6 607,383.8 595.5,390.5 584,383.8 	"/>
	<polygon class="st0" points="595.5,390.5 607,383.8 618.5,390.5 618.5,403.8 607,410.4 595.5,403.8 	"/>
	<polygon class="st0" points="561,370.6 572.5,363.9 584,370.6 584,383.8 572.5,390.5 561,383.8 	"/>
	<polygon class="st0" points="618.5,310.8 630,304.2 641.5,310.8 641.5,324.1 630,330.7 618.5,324.1 	"/>
	<polygon class="st0" points="607,330.7 618.5,324.1 630,330.7 630,344 618.5,350.7 607,344 	"/>
	<polygon class="st0" points="618.5,350.7 630,344 641.5,350.7 641.5,363.9 630,370.6 618.5,363.9 	"/>
	<polygon class="st0" points="607,370.6 618.5,363.9 630,370.6 630,383.8 618.5,390.5 607,383.8 	"/>
	<polygon class="st0" points="618.5,390.5 630,383.8 641.5,390.5 641.5,403.8 630,410.4 618.5,403.8 	"/>
	<polygon class="st0" points="549.5,390.5 561,383.8 572.5,390.5 572.5,403.8 561,410.4 549.5,403.8 	"/>
	<polygon class="st0" points="641.5,310.8 653,304.2 664.5,310.8 664.5,324.1 653,330.7 641.5,324.1 	"/>
	<polygon class="st0" points="630,330.7 641.5,324.1 653,330.7 653,344 641.5,350.7 630,344 	"/>
	<polygon class="st0" points="561,330.7 572.5,324.1 584,330.7 584,344 572.5,350.7 561,344 	"/>
	<polygon class="st0" points="630,370.6 641.5,363.9 653,370.6 653,383.8 641.5,390.5 630,383.8 	"/>
	<polygon class="st0" points="641.5,350.7 653,344 664.5,350.7 664.5,363.9 653,370.6 641.5,363.9 	"/>
	<polygon class="st0" points="572.5,310.8 584,304.2 595.5,310.8 595.5,324.1 584,330.7 572.5,324.1 	"/>
</g>
<g id="INDIANA">
	<polygon class="st0" points="653,450.2 664.5,443.6 676,450.2 676,463.5 664.5,470.2 653,463.5 	"/>
	<polygon class="st0" points="653,410.4 664.5,403.8 676,410.4 676,423.7 664.5,430.3 653,423.7 	"/>
	<polygon class="st0" points="664.5,430.3 676,423.7 687.5,430.3 687.5,443.6 676,450.2 664.5,443.6 	"/>
	<polygon class="st0" points="699,410.4 710.5,403.8 722,410.4 722,423.7 710.5,430.3 699,423.7 	"/>
	<polygon class="st0" points="664.5,470.2 676,463.5 687.5,470.2 687.5,483.4 676,490.1 664.5,483.4 	"/>
	<polygon class="st0" points="699,450.2 710.5,443.6 722,450.2 722,463.5 710.5,470.2 699,463.5 	"/>
	<polygon class="st0" points="641.5,430.3 653,423.7 664.5,430.3 664.5,443.6 653,450.2 641.5,443.6 	"/>
	<polygon class="st0" points="676,410.4 687.5,403.8 699,410.4 699,423.7 687.5,430.3 676,423.7 	"/>
	<polygon class="st0" points="687.5,430.3 699,423.7 710.5,430.3 710.5,443.6 699,450.2 687.5,443.6 	"/>
	<polygon class="st0" points="676,450.2 687.5,443.6 699,450.2 699,463.5 687.5,470.2 676,463.5 	"/>
	<polygon class="st0" points="687.5,470.2 699,463.5 710.5,470.2 710.5,483.4 699,490.1 687.5,483.4 	"/>
</g>
<g id="IOWA">
	<polygon class="st0" points="457.5,350.7 469,344 480.5,350.7 480.5,363.9 469,370.6 457.5,363.9 	"/>
	<polygon class="st0" points="480.5,350.7 492,344 503.5,350.7 503.5,363.9 492,370.6 480.5,363.9 	"/>
	<polygon class="st0" points="469,370.6 480.5,363.9 492,370.6 492,383.8 480.5,390.5 469,383.8 	"/>
	<polygon class="st0" points="503.5,350.7 515,344 526.5,350.7 526.5,363.9 515,370.6 503.5,363.9 	"/>
	<polygon class="st0" points="492,370.6 503.5,363.9 515,370.6 515,383.8 503.5,390.5 492,383.8 	"/>
	<polygon class="st0" points="515,370.6 526.5,363.9 538,370.6 538,383.8 526.5,390.5 515,383.8 	"/>
</g>
<g id="KANSAS">
	<polygon class="st0" points="331,450.2 342.5,443.6 354,450.2 354,463.5 342.5,470.2 331,463.5 	"/>
	<polygon class="st0" points="319.5,510 331,503.4 342.5,510 342.5,523.3 331,529.9 319.5,523.3 	"/>
	<polygon class="st0" points="342.5,470.2 354,463.5 365.5,470.2 365.5,483.4 354,490.1 342.5,483.4 	"/>
	<polygon class="st0" points="331,490.1 342.5,483.4 354,490.1 354,503.4 342.5,510 331,503.4 	"/>
	<polygon class="st0" points="342.5,510 354,503.4 365.5,510 365.5,523.3 354,529.9 342.5,523.3 	"/>
	<polygon class="st0" points="354,490.1 365.5,483.4 377,490.1 377,503.4 365.5,510 354,503.4 	"/>
</g>
<g id="KENTUCKY">
	<polygon class="st0" points="480.5,470.2 492,463.5 503.5,470.2 503.5,483.4 492,490.1 480.5,483.4 	"/>
	<polygon class="st0" points="503.5,470.2 515,463.5 526.5,470.2 526.5,483.4 515,490.1 503.5,483.4 	"/>
	<polygon class="st0" points="526.5,470.2 538,463.5 549.5,470.2 549.5,483.4 538,490.1 526.5,483.4 	"/>
	<polygon class="st0" points="549.5,470.2 561,463.5 572.5,470.2 572.5,483.4 561,490.1 549.5,483.4 	"/>
	<polygon class="st0" points="492,450.2 503.5,443.6 515,450.2 515,463.5 503.5,470.2 492,463.5 	"/>
	<polygon class="st0" points="572.5,470.2 584,463.5 595.5,470.2 595.5,483.4 584,490.1 572.5,483.4 	"/>
	<polygon class="st0" points="618.5,470.2 630,463.5 641.5,470.2 641.5,483.4 630,490.1 618.5,483.4 	"/>
	<polygon class="st0" points="595.5,470.2 607,463.5 618.5,470.2 618.5,483.4 607,490.1 595.5,483.4 	"/>
</g>
<g id="LOUISIANA">
	<polygon class="st0" points="434.5,589.7 446,583 457.5,589.7 457.5,603 446,609.6 434.5,603 	"/>
	<polygon class="st0" points="434.5,629.5 446,622.9 457.5,629.5 457.5,642.8 446,649.4 434.5,642.8 	"/>
	<polygon class="st0" points="446,569.8 457.5,563.1 469,569.8 469,583 457.5,589.7 446,583 	"/>
	<polygon class="st0" points="457.5,589.7 469,583 480.5,589.7 480.5,603 469,609.6 457.5,603 	"/>
	<polygon class="st0" points="446,609.6 457.5,603 469,609.6 469,622.9 457.5,629.5 446,622.9 	"/>
	<polygon class="st0" points="457.5,629.5 469,622.9 480.5,629.5 480.5,642.8 469,649.4 457.5,642.8 	"/>
	<polygon class="st0" points="446,649.4 457.5,642.8 469,649.4 469,662.7 457.5,669.3 446,662.7 	"/>
	<polygon class="st0" points="469,649.4 480.5,642.8 492,649.4 492,662.7 480.5,669.3 469,662.7 	"/>
</g>
<g id="MAINE">
	<polygon class="st0" points="1124.5,32 1136,25.3 1147.5,32 1147.5,45.2 1136,51.9 1124.5,45.2 	"/>
	<polygon class="st0" points="1136,51.9 1147.5,45.2 1159,51.9 1159,65.2 1147.5,71.8 1136,65.2 	"/>
	<polygon class="st0" points="1124.5,71.8 1136,65.2 1147.5,71.8 1147.5,85.1 1136,91.7 1124.5,85.1 	"/>
	<polygon class="st0" points="1147.5,32 1159,25.3 1170.5,32 1170.5,45.2 1159,51.9 1147.5,45.2 	"/>
</g>
<g id="MARYLAND">
	<polygon class="st0" points="952,370.6 963.5,363.9 975,370.6 975,383.8 963.5,390.5 952,383.8 	"/>
	<polygon class="st0" points="929,370.6 940.5,363.9 952,370.6 952,383.8 940.5,390.5 929,383.8 	"/>
	<polygon class="st0" points="975,370.6 986.5,363.9 998,370.6 998,383.8 986.5,390.5 975,383.8 	"/>
	<polygon class="st0" points="940.5,350.7 952,344 963.5,350.7 963.5,363.9 952,370.6 940.5,363.9 	"/>
	<polygon class="st0" points="963.5,350.7 975,344 986.5,350.7 986.5,363.9 975,370.6 963.5,363.9 	"/>
	<polygon class="st0" points="917.5,350.7 929,344 940.5,350.7 940.5,363.9 929,370.6 917.5,363.9 	"/>
	<polygon class="st0" points="906,370.6 917.5,363.9 929,370.6 929,383.8 917.5,390.5 906,383.8 	"/>
	<polygon class="st0" points="963.5,390.5 975,383.8 986.5,390.5 986.5,403.8 975,410.4 963.5,403.8 	"/>
	<polygon class="st0" points="894.5,350.7 906,344 917.5,350.7 917.5,363.9 906,370.6 894.5,363.9 	"/>
	<polygon class="st0" points="986.5,350.7 998,344 1009.5,350.7 1009.5,363.9 998,370.6 986.5,363.9 	"/>
</g>
<g id="MASSACHUSETTS">
	<polygon class="st0" points="1021,131.5 1032.5,124.9 1044,131.5 1044,144.8 1032.5,151.5 1021,144.8 	"/>
	<polygon class="st0" points="1032.5,111.6 1044,105 1055.5,111.6 1055.5,124.9 1044,131.5 1032.5,124.9 	"/>
	<polygon class="st0" points="1044,131.5 1055.5,124.9 1067,131.5 1067,144.8 1055.5,151.5 1044,144.8 	"/>
	<polygon class="st0" points="1055.5,111.6 1067,105 1078.5,111.6 1078.5,124.9 1067,131.5 1055.5,124.9 	"/>
	<polygon class="st0" points="1067,131.5 1078.5,124.9 1090,131.5 1090,144.8 1078.5,151.5 1067,144.8 	"/>
	<polygon class="st0" points="1124.5,111.6 1136,105 1147.5,111.6 1147.5,124.9 1136,131.5 1124.5,124.9 	"/>
	<polygon class="st0" points="1078.5,111.6 1090,105 1101.5,111.6 1101.5,124.9 1090,131.5 1078.5,124.9 	"/>
	<polygon class="st0" points="1090,131.5 1101.5,124.9 1113,131.5 1113,144.8 1101.5,151.5 1090,144.8 	"/>
	<polygon class="st0" points="1101.5,111.6 1113,105 1124.5,111.6 1124.5,124.9 1113,131.5 1101.5,124.9 	"/>
	<polygon class="st0" points="1113,131.5 1124.5,124.9 1136,131.5 1136,144.8 1124.5,151.5 1113,144.8 	"/>
	<polygon class="st0" points="1136,131.5 1147.5,124.9 1159,131.5 1159,144.8 1147.5,151.5 1136,144.8 	"/>
</g>
<g id="MICHIGAN">
	<polygon class="st0" points="618.5,191.3 630,184.7 641.5,191.3 641.5,204.6 630,211.2 618.5,204.6 	"/>
	<polygon class="st0" points="630,171.4 641.5,164.7 653,171.4 653,184.7 641.5,191.3 630,184.7 	"/>
	<polygon class="st0" points="641.5,191.3 653,184.7 664.5,191.3 664.5,204.6 653,211.2 641.5,204.6 	"/>
	<polygon class="st0" points="653,251.1 664.5,244.4 676,251.1 676,264.3 664.5,271 653,264.3 	"/>
	<polygon class="st0" points="676,211.2 687.5,204.6 699,211.2 699,224.5 687.5,231.1 676,224.5 	"/>
	<polygon class="st0" points="664.5,231.1 676,224.5 687.5,231.1 687.5,244.4 676,251.1 664.5,244.4 	"/>
	<polygon class="st0" points="676,251.1 687.5,244.4 699,251.1 699,264.3 687.5,271 676,264.3 	"/>
	<polygon class="st0" points="664.5,271 676,264.3 687.5,271 687.5,284.3 676,290.9 664.5,284.3 	"/>
	<polygon class="st0" points="699,211.2 710.5,204.6 722,211.2 722,224.5 710.5,231.1 699,224.5 	"/>
	<polygon class="st0" points="687.5,231.1 699,224.5 710.5,231.1 710.5,244.4 699,251.1 687.5,244.4 	"/>
	<polygon class="st0" points="699,251.1 710.5,244.4 722,251.1 722,264.3 710.5,271 699,264.3 	"/>
	<polygon class="st0" points="687.5,271 699,264.3 710.5,271 710.5,284.3 699,290.9 687.5,284.3 	"/>
	<polygon class="st0" points="710.5,231.1 722,224.5 733.5,231.1 733.5,244.4 722,251.1 710.5,244.4 	"/>
	<polygon class="st0" points="722,251.1 733.5,244.4 745,251.1 745,264.3 733.5,271 722,264.3 	"/>
	<polygon class="st0" points="710.5,271 722,264.3 733.5,271 733.5,284.3 722,290.9 710.5,284.3 	"/>
	<polygon class="st0" points="733.5,231.1 745,224.5 756.5,231.1 756.5,244.4 745,251.1 733.5,244.4 	"/>
</g>
<g id="MINNESOTA">
	<polygon class="st0" points="492,290.9 503.5,284.3 515,290.9 515,304.2 503.5,310.8 492,304.2 	"/>
	<polygon class="st0" points="434.5,231.1 446,224.5 457.5,231.1 457.5,244.4 446,251.1 434.5,244.4 	"/>
	<polygon class="st0" points="446,251.1 457.5,244.4 469,251.1 469,264.3 457.5,271 446,264.3 	"/>
	<polygon class="st0" points="469,290.9 480.5,284.3 492,290.9 492,304.2 480.5,310.8 469,304.2 	"/>
	<polygon class="st0" points="492,251.1 503.5,244.4 515,251.1 515,264.3 503.5,271 492,264.3 	"/>
	<polygon class="st0" points="457.5,231.1 469,224.5 480.5,231.1 480.5,244.4 469,251.1 457.5,244.4 	"/>
	<polygon class="st0" points="469,251.1 480.5,244.4 492,251.1 492,264.3 480.5,271 469,264.3 	"/>
	<polygon class="st0" points="457.5,271 469,264.3 480.5,271 480.5,284.3 469,290.9 457.5,284.3 	"/>
	<polygon class="st0" points="480.5,231.1 492,224.5 503.5,231.1 503.5,244.4 492,251.1 480.5,244.4 	"/>
	<polygon class="st0" points="480.5,271 492,264.3 503.5,271 503.5,284.3 492,290.9 480.5,284.3 	"/>
</g>
<g id="MISSISSIPPI">
	<polygon class="st0" points="492,609.6 503.5,603 515,609.6 515,622.9 503.5,629.5 492,622.9 	"/>
	<polygon class="st0" points="503.5,629.5 515,622.9 526.5,629.5 526.5,642.8 515,649.4 503.5,642.8 	"/>
	<polygon class="st0" points="538,649.4 549.5,642.8 561,649.4 561,662.7 549.5,669.3 538,662.7 	"/>
	<polygon class="st0" points="515,609.6 526.5,603 538,609.6 538,622.9 526.5,629.5 515,622.9 	"/>
	<polygon class="st0" points="515,649.4 526.5,642.8 538,649.4 538,662.7 526.5,669.3 515,662.7 	"/>
	<polygon class="st0" points="526.5,669.3 538,662.7 549.5,669.3 549.5,682.6 538,689.3 526.5,682.6 	"/>
</g>
<g id="MISSOURI">
	<polygon class="st0" points="354,410.4 365.5,403.8 377,410.4 377,423.7 365.5,430.3 354,423.7 	"/>
	<polygon class="st0" points="388.5,390.5 400,383.8 411.5,390.5 411.5,403.8 400,410.4 388.5,403.8 	"/>
	<polygon class="st0" points="377,410.4 388.5,403.8 400,410.4 400,423.7 388.5,430.3 377,423.7 	"/>
	<polygon class="st0" points="365.5,430.3 377,423.7 388.5,430.3 388.5,443.6 377,450.2 365.5,443.6 	"/>
	<polygon class="st0" points="377,450.2 388.5,443.6 400,450.2 400,463.5 388.5,470.2 377,463.5 	"/>
	<polygon class="st0" points="400,410.4 411.5,403.8 423,410.4 423,423.7 411.5,430.3 400,423.7 	"/>
	<polygon class="st0" points="388.5,430.3 400,423.7 411.5,430.3 411.5,443.6 400,450.2 388.5,443.6 	"/>
	<polygon class="st0" points="434.5,430.3 446,423.7 457.5,430.3 457.5,443.6 446,450.2 434.5,443.6 	"/>
	<polygon class="st0" points="411.5,430.3 423,423.7 434.5,430.3 434.5,443.6 423,450.2 411.5,443.6 	"/>
	<polygon class="st0" points="365.5,390.5 377,383.8 388.5,390.5 388.5,403.8 377,410.4 365.5,403.8 	"/>
</g>
<g id="MONTANA">
	<polygon class="st0" points="239.4,231.1 250.9,224.5 262.4,231.1 262.4,244.4 250.9,251.1 239.4,244.4 	"/>
	<polygon class="st0" points="262.4,231.1 273.9,224.5 285.4,231.1 285.4,244.4 273.9,251.1 262.4,244.4 	"/>
	<polygon class="st0" points="273.9,251.1 285.4,244.4 296.9,251.1 296.9,264.3 285.4,271 273.9,264.3 	"/>
</g>
<g id="NEBRASKA">
	<polygon class="st0" points="331,330.7 342.5,324.1 354,330.7 354,344 342.5,350.7 331,344 	"/>
	<polygon class="st0" points="342.5,310.8 354,304.2 365.5,310.8 365.5,324.1 354,330.7 342.5,324.1 	"/>
	<polygon class="st0" points="354,330.7 365.5,324.1 377,330.7 377,344 365.5,350.7 354,344 	"/>
	<polygon class="st0" points="342.5,350.7 354,344 365.5,350.7 365.5,363.9 354,370.6 342.5,363.9 	"/>
	<polygon class="st0" points="365.5,350.7 377,344 388.5,350.7 388.5,363.9 377,370.6 365.5,363.9 	"/>
</g>
<g id="NEVADA">
	<polygon class="st0" points="158.5,390.5 170,383.8 181.5,390.5 181.5,403.8 170,410.4 158.5,403.8 	"/>
	<polygon class="st0" points="170,370.6 181.5,363.9 193,370.6 193,383.8 181.5,390.5 170,383.8 	"/>
	<polygon class="st0" points="181.5,390.5 193,383.8 204.5,390.5 204.5,403.8 193,410.4 181.5,403.8 	"/>
	<polygon class="st0" points="170,410.4 181.5,403.8 193,410.4 193,423.7 181.5,430.3 170,423.7 	"/>
	<polygon class="st0" points="181.5,430.3 193,423.7 204.5,430.3 204.5,443.6 193,450.2 181.5,443.6 	"/>
	<polygon class="st0" points="193,410.4 204.5,403.8 216,410.4 216,423.7 204.5,430.3 193,423.7 	"/>
</g>
<g id="NEW_HAMPSHIRE">
	<polygon class="st0" points="1055.5,71.8 1067,65.2 1078.5,71.8 1078.5,85.1 1067,91.7 1055.5,85.1 	"/>
	<polygon class="st0" points="1078.5,32 1090,25.3 1101.5,32 1101.5,45.2 1090,51.9 1078.5,45.2 	"/>
	<polygon class="st0" points="1067,51.9 1078.5,45.2 1090,51.9 1090,65.2 1078.5,71.8 1067,65.2 	"/>
	<polygon class="st0" points="1078.5,71.8 1090,65.2 1101.5,71.8 1101.5,85.1 1090,91.7 1078.5,85.1 	"/>
</g>
<g id="NEW_JERSEY">
	<polygon class="st0" points="986.5,231.1 998,224.5 1009.5,231.1 1009.5,244.4 998,251.1 986.5,244.4 	"/>
	<polygon class="st0" points="986.5,271 998,264.3 1009.5,271 1009.5,284.3 998,290.9 986.5,284.3 	"/>
	<polygon class="st0" points="1009.5,231.1 1021,224.5 1032.5,231.1 1032.5,244.4 1021,251.1 1009.5,244.4 	"/>
	<polygon class="st0" points="998,251.1 1009.5,244.4 1021,251.1 1021,264.3 1009.5,271 998,264.3 	"/>
	<polygon class="st0" points="1009.5,271 1021,264.3 1032.5,271 1032.5,284.3 1021,290.9 1009.5,284.3 	"/>
	<polygon class="st0" points="952,251.1 963.5,244.4 975,251.1 975,264.3 963.5,271 952,264.3 	"/>
	<polygon class="st0" points="1021,251.1 1032.5,244.4 1044,251.1 1044,264.3 1032.5,271 1021,264.3 	"/>
	<polygon class="st0" points="1032.5,271 1044,264.3 1055.5,271 1055.5,284.3 1044,290.9 1032.5,284.3 	"/>
	<polygon class="st0" points="963.5,271 975,264.3 986.5,271 986.5,284.3 975,290.9 963.5,284.3 	"/>
	<polygon class="st0" points="963.5,231.1 975,224.5 986.5,231.1 986.5,244.4 975,251.1 963.5,244.4 	"/>
	<polygon class="st0" points="975,290.9 986.5,284.3 998,290.9 998,304.2 986.5,310.8 975,304.2 	"/>
	<polygon class="st0" points="998,290.9 1009.5,284.3 1021,290.9 1021,304.2 1009.5,310.8 998,304.2 	"/>
	<polygon class="st0" points="975,251.1 986.5,244.4 998,251.1 998,264.3 986.5,271 975,264.3 	"/>
	<polygon class="st0" points="1021,290.9 1032.5,284.3 1044,290.9 1044,304.2 1032.5,310.8 1021,304.2 	"/>
</g>
<g id="NEW_MEXICO">
	<polygon class="st0" points="204.5,629.5 216,622.9 227.5,629.5 227.5,642.8 216,649.4 204.5,642.8 	"/>
	<polygon class="st0" points="216,609.6 227.5,603 239,609.6 239,622.9 227.5,629.5 216,622.9 	"/>
	<polygon class="st0" points="227.5,629.5 239,622.9 250.5,629.5 250.5,642.8 239,649.4 227.5,642.8 	"/>
	<polygon class="st0" points="216,649.4 227.5,642.8 239,649.4 239,662.7 227.5,669.3 216,662.7 	"/>
	<polygon class="st0" points="239,649.4 250.5,642.8 262,649.4 262,662.7 250.5,669.3 239,662.7 	"/>
</g>
<g id="NEW_YORK">
	<polygon class="st0" points="837,171.4 848.5,164.7 860,171.4 860,184.7 848.5,191.3 837,184.7 	"/>
	<polygon class="st0" points="860,131.5 871.5,124.9 883,131.5 883,144.8 871.5,151.5 860,144.8 	"/>
	<polygon class="st0" points="848.5,151.5 860,144.8 871.5,151.5 871.5,164.7 860,171.4 848.5,164.7 	"/>
	<polygon class="st0" points="860,171.4 871.5,164.7 883,171.4 883,184.7 871.5,191.3 860,184.7 	"/>
	<polygon class="st0" points="883,131.5 894.5,124.9 906,131.5 906,144.8 894.5,151.5 883,144.8 	"/>
	<polygon class="st0" points="871.5,151.5 883,144.8 894.5,151.5 894.5,164.7 883,171.4 871.5,164.7 	"/>
	<polygon class="st0" points="883,171.4 894.5,164.7 906,171.4 906,184.7 894.5,191.3 883,184.7 	"/>
	<polygon class="st0" points="906,131.5 917.5,124.9 929,131.5 929,144.8 917.5,151.5 906,144.8 	"/>
	<polygon class="st0" points="894.5,151.5 906,144.8 917.5,151.5 917.5,164.7 906,171.4 894.5,164.7 	"/>
	<polygon class="st0" points="906,171.4 917.5,164.7 929,171.4 929,184.7 917.5,191.3 906,184.7 	"/>
	<polygon class="st0" points="929,91.7 940.5,85.1 952,91.7 952,105 940.5,111.6 929,105 	"/>
	<polygon class="st0" points="917.5,111.6 929,105 940.5,111.6 940.5,124.9 929,131.5 917.5,124.9 	"/>
	<polygon class="st0" points="929,131.5 940.5,124.9 952,131.5 952,144.8 940.5,151.5 929,144.8 	"/>
	<polygon class="st0" points="917.5,151.5 929,144.8 940.5,151.5 940.5,164.7 929,171.4 917.5,164.7 	"/>
	<polygon class="st0" points="929,171.4 940.5,164.7 952,171.4 952,184.7 940.5,191.3 929,184.7 	"/>
	<polygon class="st0" points="871.5,111.6 883,105 894.5,111.6 894.5,124.9 883,131.5 871.5,124.9 	"/>
	<polygon class="st0" points="940.5,71.8 952,65.2 963.5,71.8 963.5,85.1 952,91.7 940.5,85.1 	"/>
	<polygon class="st0" points="952,91.7 963.5,85.1 975,91.7 975,105 963.5,111.6 952,105 	"/>
	<polygon class="st0" points="940.5,111.6 952,105 963.5,111.6 963.5,124.9 952,131.5 940.5,124.9 	"/>
	<polygon class="st0" points="952,131.5 963.5,124.9 975,131.5 975,144.8 963.5,151.5 952,144.8 	"/>
	<polygon class="st0" points="940.5,151.5 952,144.8 963.5,151.5 963.5,164.7 952,171.4 940.5,164.7 	"/>
	<polygon class="st0" points="952,171.4 963.5,164.7 975,171.4 975,184.7 963.5,191.3 952,184.7 	"/>
	<polygon class="st0" points="917.5,191.3 929,184.7 940.5,191.3 940.5,204.6 929,211.2 917.5,204.6 	"/>
	<polygon class="st0" points="894.5,111.6 906,105 917.5,111.6 917.5,124.9 906,131.5 894.5,124.9 	"/>
	<polygon class="st0" points="963.5,71.8 975,65.2 986.5,71.8 986.5,85.1 975,91.7 963.5,85.1 	"/>
	<polygon class="st0" points="963.5,111.6 975,105 986.5,111.6 986.5,124.9 975,131.5 963.5,124.9 	"/>
	<polygon class="st0" points="963.5,151.5 975,144.8 986.5,151.5 986.5,164.7 975,171.4 963.5,164.7 	"/>
	<polygon class="st0" points="940.5,191.3 952,184.7 963.5,191.3 963.5,204.6 952,211.2 940.5,204.6 	"/>
	<polygon class="st0" points="963.5,191.3 975,184.7 986.5,191.3 986.5,204.6 975,211.2 963.5,204.6 	"/>
</g>
<g id="NORTH_CAROLINA">
	<polygon class="st0" points="710.5,510 722,503.4 733.5,510 733.5,523.3 722,529.9 710.5,523.3 	"/>
	<polygon class="st0" points="722,490.1 733.5,483.4 745,490.1 745,503.4 733.5,510 722,503.4 	"/>
	<polygon class="st0" points="733.5,510 745,503.4 756.5,510 756.5,523.3 745,529.9 733.5,523.3 	"/>
	<polygon class="st0" points="745,490.1 756.5,483.4 768,490.1 768,503.4 756.5,510 745,503.4 	"/>
	<polygon class="st0" points="756.5,510 768,503.4 779.5,510 779.5,523.3 768,529.9 756.5,523.3 	"/>
	<polygon class="st0" points="768,490.1 779.5,483.4 791,490.1 791,503.4 779.5,510 768,503.4 	"/>
	<polygon class="st0" points="779.5,510 791,503.4 802.5,510 802.5,523.3 791,529.9 779.5,523.3 	"/>
	<polygon class="st0" points="791,490.1 802.5,483.4 814,490.1 814,503.4 802.5,510 791,503.4 	"/>
	<polygon class="st0" points="802.5,510 814,503.4 825.5,510 825.5,523.3 814,529.9 802.5,523.3 	"/>
	<polygon class="st0" points="814,490.1 825.5,483.4 837,490.1 837,503.4 825.5,510 814,503.4 	"/>
	<polygon class="st0" points="825.5,510 837,503.4 848.5,510 848.5,523.3 837,529.9 825.5,523.3 	"/>
	<polygon class="st0" points="837,490.1 848.5,483.4 860,490.1 860,503.4 848.5,510 837,503.4 	"/>
	<polygon class="st0" points="848.5,510 860,503.4 871.5,510 871.5,523.3 860,529.9 848.5,523.3 	"/>
	<polygon class="st0" points="837,529.9 848.5,523.3 860,529.9 860,543.2 848.5,549.8 837,543.2 	"/>
	<polygon class="st0" points="860,490.1 871.5,483.4 883,490.1 883,503.4 871.5,510 860,503.4 	"/>
</g>
<g id="NORTH_DAKOTA">
	<polygon class="st0" points="365.5,231.1 377,224.5 388.5,231.1 388.5,244.4 377,251.1 365.5,244.4 	"/>
	<polygon class="st0" points="388.5,231.1 400,224.5 411.5,231.1 411.5,244.4 400,251.1 388.5,244.4 	"/>
	<polygon class="st0" points="377,251.1 388.5,244.4 400,251.1 400,264.3 388.5,271 377,264.3 	"/>
</g>
<g id="OHIO">
	<polygon class="st0" points="802.5,310.8 814,304.2 825.5,310.8 825.5,324.1 814,330.7 802.5,324.1 	"/>
	<polygon class="st0" points="745,370.6 756.5,363.9 768,370.6 768,383.8 756.5,390.5 745,383.8 	"/>
	<polygon class="st0" points="733.5,310.8 745,304.2 756.5,310.8 756.5,324.1 745,330.7 733.5,324.1 	"/>
	<polygon class="st0" points="733.5,350.7 745,344 756.5,350.7 756.5,363.9 745,370.6 733.5,363.9 	"/>
	<polygon class="st0" points="722,330.7 733.5,324.1 745,330.7 745,344 733.5,350.7 722,344 	"/>
	<polygon class="st0" points="756.5,271 768,264.3 779.5,271 779.5,284.3 768,290.9 756.5,284.3 	"/>
	<polygon class="st0" points="745,290.9 756.5,284.3 768,290.9 768,304.2 756.5,310.8 745,304.2 	"/>
	<polygon class="st0" points="756.5,310.8 768,304.2 779.5,310.8 779.5,324.1 768,330.7 756.5,324.1 	"/>
	<polygon class="st0" points="745,330.7 756.5,324.1 768,330.7 768,344 756.5,350.7 745,344 	"/>
	<polygon class="st0" points="756.5,350.7 768,344 779.5,350.7 779.5,363.9 768,370.6 756.5,363.9 	"/>
	<polygon class="st0" points="768,251.1 779.5,244.4 791,251.1 791,264.3 779.5,271 768,264.3 	"/>
	<polygon class="st0" points="779.5,271 791,264.3 802.5,271 802.5,284.3 791,290.9 779.5,284.3 	"/>
	<polygon class="st0" points="768,290.9 779.5,284.3 791,290.9 791,304.2 779.5,310.8 768,304.2 	"/>
	<polygon class="st0" points="779.5,310.8 791,304.2 802.5,310.8 802.5,324.1 791,330.7 779.5,324.1 	"/>
	<polygon class="st0" points="768,330.7 779.5,324.1 791,330.7 791,344 779.5,350.7 768,344 	"/>
	<polygon class="st0" points="779.5,350.7 791,344 802.5,350.7 802.5,363.9 791,370.6 779.5,363.9 	"/>
	<polygon class="st0" points="791,290.9 802.5,284.3 814,290.9 814,304.2 802.5,310.8 791,304.2 	"/>
	<polygon class="st0" points="791,330.7 802.5,324.1 814,330.7 814,344 802.5,350.7 791,344 	"/>
</g>
<g id="OKLAHOMA">
	<polygon class="st0" points="262,569.8 273.5,563.1 285,569.8 285,583 273.5,589.7 262,583 	"/>
	<polygon class="st0" points="285,569.8 296.5,563.1 308,569.8 308,583 296.5,589.7 285,583 	"/>
	<polygon class="st0" points="296.5,549.8 308,543.2 319.5,549.8 319.5,563.1 308,569.8 296.5,563.1 	"/>
	<polygon class="st0" points="308,569.8 319.5,563.1 331,569.8 331,583 319.5,589.7 308,583 	"/>
	<polygon class="st0" points="319.5,549.8 331,543.2 342.5,549.8 342.5,563.1 331,569.8 319.5,563.1 	"/>
	<polygon class="st0" points="331,569.8 342.5,563.1 354,569.8 354,583 342.5,589.7 331,583 	"/>
	<polygon class="st0" points="273.5,549.8 285,543.2 296.5,549.8 296.5,563.1 285,569.8 273.5,563.1 	"/>
</g>
<g id="OREGON">
	<polygon class="st0" points="43.5,310.8 55,304.2 66.5,310.8 66.5,324.1 55,330.7 43.5,324.1 	"/>
	<polygon class="st0" points="66.5,310.8 78,304.2 89.5,310.8 89.5,324.1 78,330.7 66.5,324.1 	"/>
	<polygon class="st0" points="89.5,310.8 101,304.2 112.5,310.8 112.5,324.1 101,330.7 89.5,324.1 	"/>
	<polygon class="st0" points="112.5,310.8 124,304.2 135.5,310.8 135.5,324.1 124,330.7 112.5,324.1 	"/>
	<polygon class="st0" points="135.5,310.8 147,304.2 158.5,310.8 158.5,324.1 147,330.7 135.5,324.1 	"/>
	<polygon class="st0" points="78,330.7 89.5,324.1 101,330.7 101,344 89.5,350.7 78,344 	"/>
	<polygon class="st0" points="55,330.7 66.5,324.1 78,330.7 78,344 66.5,350.7 55,344 	"/>
</g>
<g id="PENNSYLVANIA">
	<polygon class="st0" points="906,251.1 917.5,244.4 929,251.1 929,264.3 917.5,271 906,264.3 	"/>
	<polygon class="st0" points="894.5,271 906,264.3 917.5,271 917.5,284.3 906,290.9 894.5,284.3 	"/>
	<polygon class="st0" points="837,290.9 848.5,284.3 860,290.9 860,304.2 848.5,310.8 837,304.2 	"/>
	<polygon class="st0" points="814,211.2 825.5,204.6 837,211.2 837,224.5 825.5,231.1 814,224.5 	"/>
	<polygon class="st0" points="825.5,231.1 837,224.5 848.5,231.1 848.5,244.4 837,251.1 825.5,244.4 	"/>
	<polygon class="st0" points="814,251.1 825.5,244.4 837,251.1 837,264.3 825.5,271 814,264.3 	"/>
	<polygon class="st0" points="825.5,271 837,264.3 848.5,271 848.5,284.3 837,290.9 825.5,284.3 	"/>
	<polygon class="st0" points="837,211.2 848.5,204.6 860,211.2 860,224.5 848.5,231.1 837,224.5 	"/>
	<polygon class="st0" points="848.5,231.1 860,224.5 871.5,231.1 871.5,244.4 860,251.1 848.5,244.4 	"/>
	<polygon class="st0" points="837,251.1 848.5,244.4 860,251.1 860,264.3 848.5,271 837,264.3 	"/>
	<polygon class="st0" points="848.5,271 860,264.3 871.5,271 871.5,284.3 860,290.9 848.5,284.3 	"/>
	<polygon class="st0" points="860,211.2 871.5,204.6 883,211.2 883,224.5 871.5,231.1 860,224.5 	"/>
	<polygon class="st0" points="871.5,231.1 883,224.5 894.5,231.1 894.5,244.4 883,251.1 871.5,244.4 	"/>
	<polygon class="st0" points="860,251.1 871.5,244.4 883,251.1 883,264.3 871.5,271 860,264.3 	"/>
	<polygon class="st0" points="871.5,271 883,264.3 894.5,271 894.5,284.3 883,290.9 871.5,284.3 	"/>
	<polygon class="st0" points="883,211.2 894.5,204.6 906,211.2 906,224.5 894.5,231.1 883,224.5 	"/>
	<polygon class="st0" points="894.5,231.1 906,224.5 917.5,231.1 917.5,244.4 906,251.1 894.5,244.4 	"/>
	<polygon class="st0" points="883,251.1 894.5,244.4 906,251.1 906,264.3 894.5,271 883,264.3 	"/>
	<polygon class="st0" points="860,290.9 871.5,284.3 883,290.9 883,304.2 871.5,310.8 860,304.2 	"/>
	<polygon class="st0" points="917.5,231.1 929,224.5 940.5,231.1 940.5,244.4 929,251.1 917.5,244.4 	"/>
</g>
<g id="RHODE_ISLAND">
	<polygon class="st0" points="1090,171.4 1101.5,164.7 1113,171.4 1113,184.7 1101.5,191.3 1090,184.7 	"/>
	<polygon class="st0" points="1101.5,191.3 1113,184.7 1124.5,191.3 1124.5,204.6 1113,211.2 1101.5,204.6 	"/>
	<polygon class="st0" points="1113,171.4 1124.5,164.7 1136,171.4 1136,184.7 1124.5,191.3 1113,184.7 	"/>
	<polygon class="st0" points="1124.5,191.3 1136,184.7 1147.5,191.3 1147.5,204.6 1136,211.2 1124.5,204.6 	"/>
</g>
<g id="SOUTH_CAROLINA">
	<polygon class="st0" points="722,569.8 733.5,563.1 745,569.8 745,583 733.5,589.7 722,583 	"/>
	<polygon class="st0" points="733.5,589.7 745,583 756.5,589.7 756.5,603 745,609.6 733.5,603 	"/>
	<polygon class="st0" points="745,569.8 756.5,563.1 768,569.8 768,583 756.5,589.7 745,583 	"/>
	<polygon class="st0" points="756.5,589.7 768,583 779.5,589.7 779.5,603 768,609.6 756.5,603 	"/>
	<polygon class="st0" points="710.5,589.7 722,583 733.5,589.7 733.5,603 722,609.6 710.5,603 	"/>
	<polygon class="st0" points="768,569.8 779.5,563.1 791,569.8 791,583 779.5,589.7 768,583 	"/>
	<polygon class="st0" points="779.5,589.7 791,583 802.5,589.7 802.5,603 791,609.6 779.5,603 	"/>
	<polygon class="st0" points="733.5,549.8 745,543.2 756.5,549.8 756.5,563.1 745,569.8 733.5,563.1 	"/>
	<polygon class="st0" points="756.5,549.8 768,543.2 779.5,549.8 779.5,563.1 768,569.8 756.5,563.1 	"/>
</g>
<g id="SOUTH_DAKOTA">
	<polygon class="st0" points="400,330.7 411.5,324.1 423,330.7 423,344 411.5,350.7 400,344 	"/>
	<polygon class="st0" points="388.5,310.8 400,304.2 411.5,310.8 411.5,324.1 400,330.7 388.5,324.1 	"/>
	<polygon class="st0" points="411.5,310.8 423,304.2 434.5,310.8 434.5,324.1 423,330.7 411.5,324.1 	"/>
</g>
<g id="TENNESSEE">
	<polygon class="st0" points="503.5,510 515,503.4 526.5,510 526.5,523.3 515,529.9 503.5,523.3 	"/>
	<polygon class="st0" points="515,529.9 526.5,523.3 538,529.9 538,543.2 526.5,549.8 515,543.2 	"/>
	<polygon class="st0" points="526.5,510 538,503.4 549.5,510 549.5,523.3 538,529.9 526.5,523.3 	"/>
	<polygon class="st0" points="538,529.9 549.5,523.3 561,529.9 561,543.2 549.5,549.8 538,543.2 	"/>
	<polygon class="st0" points="549.5,510 561,503.4 572.5,510 572.5,523.3 561,529.9 549.5,523.3 	"/>
	<polygon class="st0" points="561,529.9 572.5,523.3 584,529.9 584,543.2 572.5,549.8 561,543.2 	"/>
	<polygon class="st0" points="572.5,510 584,503.4 595.5,510 595.5,523.3 584,529.9 572.5,523.3 	"/>
	<polygon class="st0" points="584,529.9 595.5,523.3 607,529.9 607,543.2 595.5,549.8 584,543.2 	"/>
	<polygon class="st0" points="595.5,510 607,503.4 618.5,510 618.5,523.3 607,529.9 595.5,523.3 	"/>
	<polygon class="st0" points="492,529.9 503.5,523.3 515,529.9 515,543.2 503.5,549.8 492,543.2 	"/>
	<polygon class="st0" points="618.5,510 630,503.4 641.5,510 641.5,523.3 630,529.9 618.5,523.3 	"/>
</g>
<g id="TEXAS">
	<polygon class="st0" points="411.5,669.3 423,662.7 434.5,669.3 434.5,682.6 423,689.3 411.5,682.6 	"/>
	<polygon class="st0" points="400,649.4 411.5,642.8 423,649.4 423,662.7 411.5,669.3 400,662.7 	"/>
	<polygon class="st0" points="285,729.1 296.5,722.5 308,729.1 308,742.4 296.5,749 285,742.4 	"/>
	<polygon class="st0" points="388.5,669.3 400,662.7 411.5,669.3 411.5,682.6 400,689.3 388.5,682.6 	"/>
	<polygon class="st0" points="423,689.3 434.5,682.6 446,689.3 446,702.5 434.5,709.2 423,702.5 	"/>
	<polygon class="st0" points="285,689.3 296.5,682.6 308,689.3 308,702.5 296.5,709.2 285,702.5 	"/>
	<polygon class="st0" points="296.5,709.2 308,702.5 319.5,709.2 319.5,722.5 308,729.1 296.5,722.5 	"/>
	<polygon class="st0" points="262,689.3 273.5,682.6 285,689.3 285,702.5 273.5,709.2 262,702.5 	"/>
	<polygon class="st0" points="388.5,709.2 400,702.5 411.5,709.2 411.5,722.5 400,729.1 388.5,722.5 	"/>
	<polygon class="st0" points="308,609.6 319.5,603 331,609.6 331,622.9 319.5,629.5 308,622.9 	"/>
	<polygon class="st0" points="319.5,629.5 331,622.9 342.5,629.5 342.5,642.8 331,649.4 319.5,642.8 	"/>
	<polygon class="st0" points="308,649.4 319.5,642.8 331,649.4 331,662.7 319.5,669.3 308,662.7 	"/>
	<polygon class="st0" points="319.5,669.3 331,662.7 342.5,669.3 342.5,682.6 331,689.3 319.5,682.6 	"/>
	<polygon class="st0" points="308,689.3 319.5,682.6 331,689.3 331,702.5 319.5,709.2 308,702.5 	"/>
	<polygon class="st0" points="319.5,709.2 331,702.5 342.5,709.2 342.5,722.5 331,729.1 319.5,722.5 	"/>
	<polygon class="st0" points="308,729.1 319.5,722.5 331,729.1 331,742.4 319.5,749 308,742.4 	"/>
	<polygon class="st0" points="319.5,749 331,742.4 342.5,749 342.5,762.3 331,768.9 319.5,762.3 	"/>
	<polygon class="st0" points="273.5,709.2 285,702.5 296.5,709.2 296.5,722.5 285,729.1 273.5,722.5 	"/>
	<polygon class="st0" points="331,609.6 342.5,603 354,609.6 354,622.9 342.5,629.5 331,622.9 	"/>
	<polygon class="st0" points="342.5,629.5 354,622.9 365.5,629.5 365.5,642.8 354,649.4 342.5,642.8 	"/>
	<polygon class="st0" points="331,649.4 342.5,642.8 354,649.4 354,662.7 342.5,669.3 331,662.7 	"/>
	<polygon class="st0" points="342.5,669.3 354,662.7 365.5,669.3 365.5,682.6 354,689.3 342.5,682.6 	"/>
	<polygon class="st0" points="331,689.3 342.5,682.6 354,689.3 354,702.5 342.5,709.2 331,702.5 	"/>
	<polygon class="st0" points="342.5,709.2 354,702.5 365.5,709.2 365.5,722.5 354,729.1 342.5,722.5 	"/>
	<polygon class="st0" points="331,729.1 342.5,722.5 354,729.1 354,742.4 342.5,749 331,742.4 	"/>
	<polygon class="st0" points="342.5,749 354,742.4 365.5,749 365.5,762.3 354,768.9 342.5,762.3 	"/>
	<polygon class="st0" points="239,689.3 250.5,682.6 262,689.3 262,702.5 250.5,709.2 239,702.5 	"/>
	<polygon class="st0" points="354,609.6 365.5,603 377,609.6 377,622.9 365.5,629.5 354,622.9 	"/>
	<polygon class="st0" points="365.5,629.5 377,622.9 388.5,629.5 388.5,642.8 377,649.4 365.5,642.8 	"/>
	<polygon class="st0" points="354,649.4 365.5,642.8 377,649.4 377,662.7 365.5,669.3 354,662.7 	"/>
	<polygon class="st0" points="365.5,669.3 377,662.7 388.5,669.3 388.5,682.6 377,689.3 365.5,682.6 	"/>
	<polygon class="st0" points="354,689.3 365.5,682.6 377,689.3 377,702.5 365.5,709.2 354,702.5 	"/>
	<polygon class="st0" points="365.5,709.2 377,702.5 388.5,709.2 388.5,722.5 377,729.1 365.5,722.5 	"/>
	<polygon class="st0" points="354,729.1 365.5,722.5 377,729.1 377,742.4 365.5,749 354,742.4 	"/>
	<polygon class="st0" points="331,768.9 342.5,762.3 354,768.9 354,782.2 342.5,788.9 331,782.2 	"/>
	<polygon class="st0" points="400,689.3 411.5,682.6 423,689.3 423,702.5 411.5,709.2 400,702.5 	"/>
	<polygon class="st0" points="377,649.4 388.5,642.8 400,649.4 400,662.7 388.5,669.3 377,662.7 	"/>
	<polygon class="st0" points="377,689.3 388.5,682.6 400,689.3 400,702.5 388.5,709.2 377,702.5 	"/>
</g>
<g id="UTAH">
	<polygon class="st0" points="273.5,470.2 285,463.5 296.5,470.2 296.5,483.4 285,490.1 273.5,483.4 	"/>
	<polygon class="st0" points="262,410.4 273.5,403.8 285,410.4 285,423.7 273.5,430.3 262,423.7 	"/>
	<polygon class="st0" points="250.5,430.3 262,423.7 273.5,430.3 273.5,443.6 262,450.2 250.5,443.6 	"/>
	<polygon class="st0" points="262,450.2 273.5,443.6 285,450.2 285,463.5 273.5,470.2 262,463.5 	"/>
	<polygon class="st0" points="250.5,470.2 262,463.5 273.5,470.2 273.5,483.4 262,490.1 250.5,483.4 	"/>
	<polygon class="st0" points="239,450.2 250.5,443.6 262,450.2 262,463.5 250.5,470.2 239,463.5 	"/>
</g>
<g id="VERMONT">
	<polygon class="st0" points="998,91.7 1009.5,85.1 1021,91.7 1021,105 1009.5,111.6 998,105 	"/>
	<polygon class="st0" points="1021,51.9 1032.5,45.2 1044,51.9 1044,65.2 1032.5,71.8 1021,65.2 	"/>
	<polygon class="st0" points="1009.5,71.8 1021,65.2 1032.5,71.8 1032.5,85.1 1021,91.7 1009.5,85.1 	"/>
</g>
<g id="VIRGINIA">
	<polygon class="st0" points="745,450.2 756.5,443.6 768,450.2 768,463.5 756.5,470.2 745,463.5 	"/>
	<polygon class="st0" points="756.5,430.3 768,423.7 779.5,430.3 779.5,443.6 768,450.2 756.5,443.6 	"/>
	<polygon class="st0" points="768,450.2 779.5,443.6 791,450.2 791,463.5 779.5,470.2 768,463.5 	"/>
	<polygon class="st0" points="791,450.2 802.5,443.6 814,450.2 814,463.5 802.5,470.2 791,463.5 	"/>
	<polygon class="st0" points="814,450.2 825.5,443.6 837,450.2 837,463.5 825.5,470.2 814,463.5 	"/>
	<polygon class="st0" points="860,410.4 871.5,403.8 883,410.4 883,423.7 871.5,430.3 860,423.7 	"/>
	<polygon class="st0" points="825.5,430.3 837,423.7 848.5,430.3 848.5,443.6 837,450.2 825.5,443.6 	"/>
	<polygon class="st0" points="837,450.2 848.5,443.6 860,450.2 860,463.5 848.5,470.2 837,463.5 	"/>
	<polygon class="st0" points="848.5,430.3 860,423.7 871.5,430.3 871.5,443.6 860,450.2 848.5,443.6 	"/>
	<polygon class="st0" points="802.5,430.3 814,423.7 825.5,430.3 825.5,443.6 814,450.2 802.5,443.6 	"/>
	<polygon class="st0" points="883,410.4 894.5,403.8 906,410.4 906,423.7 894.5,430.3 883,423.7 	"/>
	<polygon class="st0" points="871.5,430.3 883,423.7 894.5,430.3 894.5,443.6 883,450.2 871.5,443.6 	"/>
	<polygon class="st0" points="779.5,430.3 791,423.7 802.5,430.3 802.5,443.6 791,450.2 779.5,443.6 	"/>
</g>
<g id="WASHINGTON">
	<polygon class="st0" points="55,251.1 66.5,244.4 78,251.1 78,264.3 66.5,271 55,264.3 	"/>
	<polygon class="st0" points="89.5,231.1 101,224.5 112.5,231.1 112.5,244.4 101,251.1 89.5,244.4 	"/>
	<polygon class="st0" points="78,251.1 89.5,244.4 101,251.1 101,264.3 89.5,271 78,264.3 	"/>
	<polygon class="st0" points="112.5,231.1 124,224.5 135.5,231.1 135.5,244.4 124,251.1 112.5,244.4 	"/>
	<polygon class="st0" points="101,251.1 112.5,244.4 124,251.1 124,264.3 112.5,271 101,264.3 	"/>
	<polygon class="st0" points="135.5,231.1 147,224.5 158.5,231.1 158.5,244.4 147,251.1 135.5,244.4 	"/>
	<polygon class="st0" points="124,251.1 135.5,244.4 147,251.1 147,264.3 135.5,271 124,264.3 	"/>
	<polygon class="st0" points="158.5,231.1 170,224.5 181.5,231.1 181.5,244.4 170,251.1 158.5,244.4 	"/>
	<polygon class="st0" points="147,251.1 158.5,244.4 170,251.1 170,264.3 158.5,271 147,264.3 	"/>
	<polygon class="st0" points="181.5,231.1 193,224.5 204.5,231.1 204.5,244.4 193,251.1 181.5,244.4 	"/>
	<polygon class="st0" points="170,251.1 181.5,244.4 193,251.1 193,264.3 181.5,271 170,264.3 	"/>
	<polygon class="st0" points="193,251.1 204.5,244.4 216,251.1 216,264.3 204.5,271 193,264.3 	"/>
</g>
<g id="WEST_VIRGINIA">
	<polygon class="st0" points="814,370.6 825.5,363.9 837,370.6 837,383.8 825.5,390.5 814,383.8 	"/>
	<polygon class="st0" points="802.5,390.5 814,383.8 825.5,390.5 825.5,403.8 814,410.4 802.5,403.8 	"/>
	<polygon class="st0" points="825.5,350.7 837,344 848.5,350.7 848.5,363.9 837,370.6 825.5,363.9 	"/>
	<polygon class="st0" points="837,370.6 848.5,363.9 860,370.6 860,383.8 848.5,390.5 837,383.8 	"/>
	<polygon class="st0" points="825.5,390.5 837,383.8 848.5,390.5 848.5,403.8 837,410.4 825.5,403.8 	"/>
</g>
<g id="WISCONSIN">
	<polygon class="st0" points="549.5,231.1 561,224.5 572.5,231.1 572.5,244.4 561,251.1 549.5,244.4 	"/>
	<polygon class="st0" points="561,251.1 572.5,244.4 584,251.1 584,264.3 572.5,271 561,264.3 	"/>
	<polygon class="st0" points="572.5,231.1 584,224.5 595.5,231.1 595.5,244.4 584,251.1 572.5,244.4 	"/>
	<polygon class="st0" points="584,251.1 595.5,244.4 607,251.1 607,264.3 595.5,271 584,264.3 	"/>
	<polygon class="st0" points="572.5,271 584,264.3 595.5,271 595.5,284.3 584,290.9 572.5,284.3 	"/>
	<polygon class="st0" points="595.5,231.1 607,224.5 618.5,231.1 618.5,244.4 607,251.1 595.5,244.4 	"/>
	<polygon class="st0" points="607,251.1 618.5,244.4 630,251.1 630,264.3 618.5,271 607,264.3 	"/>
	<polygon class="st0" points="595.5,271 607,264.3 618.5,271 618.5,284.3 607,290.9 595.5,284.3 	"/>
	<polygon class="st0" points="618.5,231.1 630,224.5 641.5,231.1 641.5,244.4 630,251.1 618.5,244.4 	"/>
	<polygon class="st0" points="538,251.1 549.5,244.4 561,251.1 561,264.3 549.5,271 538,264.3 	"/>
</g>
<g id="WYOMING">
	<polygon class="st0" points="319.5,231.1 331,224.5 342.5,231.1 342.5,244.4 331,251.1 319.5,244.4 	"/>
	<polygon class="st0" points="331,251.1 342.5,244.4 354,251.1 354,264.3 342.5,271 331,264.3 	"/>
	<polygon class="st0" points="319.5,271 331,264.3 342.5,271 342.5,284.3 331,290.9 319.5,284.3 	"/>
</g>
<g id="ALASKA">
	<polygon class="st0" points="32,729.1 43.5,722.5 55,729.1 55,742.4 43.5,749 32,742.4 	"/>
	<polygon class="st0" points="20.5,749 32,742.4 43.5,749 43.5,762.3 32,768.9 20.5,762.3 	"/>
	<polygon class="st0" points="43.5,749 55,742.4 66.5,749 66.5,762.3 55,768.9 43.5,762.3 	"/>
</g>
<g id="CALIFORNIA">
	<polygon class="st0" points="32,370.6 43.5,363.9 55,370.6 55,383.8 43.5,390.5 32,383.8 	"/>
	<polygon class="st0" points="43.5,390.5 55,383.8 66.5,390.5 66.5,403.8 55,410.4 43.5,403.8 	"/>
	<polygon class="st0" points="32,410.4 43.5,403.8 55,410.4 55,423.7 43.5,430.3 32,423.7 	"/>
	<polygon class="st0" points="43.5,430.3 55,423.7 66.5,430.3 66.5,443.6 55,450.2 43.5,443.6 	"/>
	<polygon class="st0" points="32,450.2 43.5,443.6 55,450.2 55,463.5 43.5,470.2 32,463.5 	"/>
	<polygon class="st0" points="32,490.1 43.5,483.4 55,490.1 55,503.4 43.5,510 32,503.4 	"/>
	<polygon class="st0" points="43.5,510 55,503.4 66.5,510 66.5,523.3 55,529.9 43.5,523.3 	"/>
	<polygon class="st0" points="55,370.6 66.5,363.9 78,370.6 78,383.8 66.5,390.5 55,383.8 	"/>
	<polygon class="st0" points="66.5,390.5 78,383.8 89.5,390.5 89.5,403.8 78,410.4 66.5,403.8 	"/>
	<polygon class="st0" points="55,410.4 66.5,403.8 78,410.4 78,423.7 66.5,430.3 55,423.7 	"/>
	<polygon class="st0" points="66.5,430.3 78,423.7 89.5,430.3 89.5,443.6 78,450.2 66.5,443.6 	"/>
	<polygon class="st0" points="55,450.2 66.5,443.6 78,450.2 78,463.5 66.5,470.2 55,463.5 	"/>
	<polygon class="st0" points="66.5,470.2 78,463.5 89.5,470.2 89.5,483.4 78,490.1 66.5,483.4 	"/>
	<polygon class="st0" points="55,490.1 66.5,483.4 78,490.1 78,503.4 66.5,510 55,503.4 	"/>
	<polygon class="st0" points="66.5,510 78,503.4 89.5,510 89.5,523.3 78,529.9 66.5,523.3 	"/>
	<polygon class="st0" points="55,529.9 66.5,523.3 78,529.9 78,543.2 66.5,549.8 55,543.2 	"/>
	<polygon class="st0" points="66.5,549.8 78,543.2 89.5,549.8 89.5,563.1 78,569.8 66.5,563.1 	"/>
	<polygon class="st0" points="78,370.6 89.5,363.9 101,370.6 101,383.8 89.5,390.5 78,383.8 	"/>
	<polygon class="st0" points="89.5,390.5 101,383.8 112.5,390.5 112.5,403.8 101,410.4 89.5,403.8 	"/>
	<polygon class="st0" points="78,410.4 89.5,403.8 101,410.4 101,423.7 89.5,430.3 78,423.7 	"/>
	<polygon class="st0" points="89.5,430.3 101,423.7 112.5,430.3 112.5,443.6 101,450.2 89.5,443.6 	"/>
	<polygon class="st0" points="78,450.2 89.5,443.6 101,450.2 101,463.5 89.5,470.2 78,463.5 	"/>
	<polygon class="st0" points="89.5,470.2 101,463.5 112.5,470.2 112.5,483.4 101,490.1 89.5,483.4 	"/>
	<polygon class="st0" points="78,490.1 89.5,483.4 101,490.1 101,503.4 89.5,510 78,503.4 	"/>
	<polygon class="st0" points="89.5,510 101,503.4 112.5,510 112.5,523.3 101,529.9 89.5,523.3 	"/>
	<polygon class="st0" points="78,529.9 89.5,523.3 101,529.9 101,543.2 89.5,549.8 78,543.2 	"/>
	<polygon class="st0" points="89.5,549.8 101,543.2 112.5,549.8 112.5,563.1 101,569.8 89.5,563.1 	"/>
	<polygon class="st0" points="78,569.8 89.5,563.1 101,569.8 101,583 89.5,589.7 78,583 	"/>
	<polygon class="st0" points="101,370.6 112.5,363.9 124,370.6 124,383.8 112.5,390.5 101,383.8 	"/>
	<polygon class="st0" points="112.5,390.5 124,383.8 135.5,390.5 135.5,403.8 124,410.4 112.5,403.8 	"/>
	<polygon class="st0" points="101,410.4 112.5,403.8 124,410.4 124,423.7 112.5,430.3 101,423.7 	"/>
	<polygon class="st0" points="112.5,430.3 124,423.7 135.5,430.3 135.5,443.6 124,450.2 112.5,443.6 	"/>
	<polygon class="st0" points="101,450.2 112.5,443.6 124,450.2 124,463.5 112.5,470.2 101,463.5 	"/>
	<polygon class="st0" points="112.5,470.2 124,463.5 135.5,470.2 135.5,483.4 124,490.1 112.5,483.4 	"/>
	<polygon class="st0" points="101,490.1 112.5,483.4 124,490.1 124,503.4 112.5,510 101,503.4 	"/>
	<polygon class="st0" points="112.5,510 124,503.4 135.5,510 135.5,523.3 124,529.9 112.5,523.3 	"/>
	<polygon class="st0" points="101,529.9 112.5,523.3 124,529.9 124,543.2 112.5,549.8 101,543.2 	"/>
	<polygon class="st0" points="112.5,549.8 124,543.2 135.5,549.8 135.5,563.1 124,569.8 112.5,563.1 	"/>
	<polygon class="st0" points="101,569.8 112.5,563.1 124,569.8 124,583 112.5,589.7 101,583 	"/>
	<polygon class="st0" points="112.5,589.7 124,583 135.5,589.7 135.5,603 124,609.6 112.5,603 	"/>
	<polygon class="st0" points="124,370.6 135.5,363.9 147,370.6 147,383.8 135.5,390.5 124,383.8 	"/>
	<polygon class="st0" points="124,410.4 135.5,403.8 147,410.4 147,423.7 135.5,430.3 124,423.7 	"/>
	<polygon class="st0" points="135.5,430.3 147,423.7 158.5,430.3 158.5,443.6 147,450.2 135.5,443.6 	"/>
	<polygon class="st0" points="124,450.2 135.5,443.6 147,450.2 147,463.5 135.5,470.2 124,463.5 	"/>
	<polygon class="st0" points="135.5,470.2 147,463.5 158.5,470.2 158.5,483.4 147,490.1 135.5,483.4 	"/>
	<polygon class="st0" points="124,490.1 135.5,483.4 147,490.1 147,503.4 135.5,510 124,503.4 	"/>
	<polygon class="st0" points="135.5,510 147,503.4 158.5,510 158.5,523.3 147,529.9 135.5,523.3 	"/>
	<polygon class="st0" points="124,529.9 135.5,523.3 147,529.9 147,543.2 135.5,549.8 124,543.2 	"/>
	<polygon class="st0" points="135.5,549.8 147,543.2 158.5,549.8 158.5,563.1 147,569.8 135.5,563.1 	"/>
	<polygon class="st0" points="124,569.8 135.5,563.1 147,569.8 147,583 135.5,589.7 124,583 	"/>
	<polygon class="st0" points="135.5,589.7 147,583 158.5,589.7 158.5,603 147,609.6 135.5,603 	"/>
	<polygon class="st0" points="158.5,470.2 170,463.5 181.5,470.2 181.5,483.4 170,490.1 158.5,483.4 	"/>
	<polygon class="st0" points="147,490.1 158.5,483.4 170,490.1 170,503.4 158.5,510 147,503.4 	"/>
	<polygon class="st0" points="147,529.9 158.5,523.3 170,529.9 170,543.2 158.5,549.8 147,543.2 	"/>
	<polygon class="st0" points="147,569.8 158.5,563.1 170,569.8 170,583 158.5,589.7 147,583 	"/>
</g>
<g id="ARIZONA">
	<polygon class="st0" points="193,490.1 204.5,483.4 216,490.1 216,503.4 204.5,510 193,503.4 	"/>
	<polygon class="st0" points="193,529.9 204.5,523.3 216,529.9 216,543.2 204.5,549.8 193,543.2 	"/>
	<polygon class="st0" points="193,569.8 204.5,563.1 216,569.8 216,583 204.5,589.7 193,583 	"/>
	<polygon class="st0" points="181.5,589.7 193,583 204.5,589.7 204.5,603 193,609.6 181.5,603 	"/>
	<polygon class="st0" points="204.5,470.2 216,463.5 227.5,470.2 227.5,483.4 216,490.1 204.5,483.4 	"/>
	<polygon class="st0" points="216,490.1 227.5,483.4 239,490.1 239,503.4 227.5,510 216,503.4 	"/>
	<polygon class="st0" points="181.5,510 193,503.4 204.5,510 204.5,523.3 193,529.9 181.5,523.3 	"/>
	<polygon class="st0" points="204.5,510 216,503.4 227.5,510 227.5,523.3 216,529.9 204.5,523.3 	"/>
	<polygon class="st0" points="204.5,549.8 216,543.2 227.5,549.8 227.5,563.1 216,569.8 204.5,563.1 	"/>
	<polygon class="st0" points="216,529.9 227.5,523.3 239,529.9 239,543.2 227.5,549.8 216,543.2 	"/>
	<polygon class="st0" points="181.5,549.8 193,543.2 204.5,549.8 204.5,563.1 193,569.8 181.5,563.1 	"/>
</g>
<g id="COLORADO">
	<polygon class="st0" points="296.5,350.7 308,344 319.5,350.7 319.5,363.9 308,370.6 296.5,363.9 	"/>
	<polygon class="st0" points="308,370.6 319.5,363.9 331,370.6 331,383.8 319.5,390.5 308,383.8 	"/>
	<polygon class="st0" points="296.5,390.5 308,383.8 319.5,390.5 319.5,403.8 308,410.4 296.5,403.8 	"/>
	<polygon class="st0" points="308,410.4 319.5,403.8 331,410.4 331,423.7 319.5,430.3 308,423.7 	"/>
	<polygon class="st0" points="296.5,430.3 308,423.7 319.5,430.3 319.5,443.6 308,450.2 296.5,443.6 	"/>
	<polygon class="st0" points="273.5,350.7 285,344 296.5,350.7 296.5,363.9 285,370.6 273.5,363.9 	"/>
	<polygon class="st0" points="285,370.6 296.5,363.9 308,370.6 308,383.8 296.5,390.5 285,383.8 	"/>
	<polygon class="st0" points="319.5,390.5 331,383.8 342.5,390.5 342.5,403.8 331,410.4 319.5,403.8 	"/>
	<polygon class="st0" points="285,330.7 296.5,324.1 308,330.7 308,344 296.5,350.7 285,344 	"/>
</g>
<g id="ARKANSAS">
	<polygon class="st0" points="411.5,510 423,503.4 434.5,510 434.5,523.3 423,529.9 411.5,523.3 	"/>
	<polygon class="st0" points="400,529.9 411.5,523.3 423,529.9 423,543.2 411.5,549.8 400,543.2 	"/>
	<polygon class="st0" points="423,490.1 434.5,483.4 446,490.1 446,503.4 434.5,510 423,503.4 	"/>
	<polygon class="st0" points="434.5,510 446,503.4 457.5,510 457.5,523.3 446,529.9 434.5,523.3 	"/>
	<polygon class="st0" points="423,529.9 434.5,523.3 446,529.9 446,543.2 434.5,549.8 423,543.2 	"/>
	<polygon class="st0" points="446,529.9 457.5,523.3 469,529.9 469,543.2 457.5,549.8 446,543.2 	"/>
</g>
<g id="ALABAMA">
	<polygon class="st0" points="549.5,589.7 561,583 572.5,589.7 572.5,603 561,609.6 549.5,603 	"/>
	<polygon class="st0" points="561,569.8 572.5,563.1 584,569.8 584,583 572.5,589.7 561,583 	"/>
	<polygon class="st0" points="572.5,589.7 584,583 595.5,589.7 595.5,603 584,609.6 572.5,603 	"/>
	<polygon class="st0" points="561,609.6 572.5,603 584,609.6 584,622.9 572.5,629.5 561,622.9 	"/>
	<polygon class="st0" points="572.5,629.5 584,622.9 595.5,629.5 595.5,642.8 584,649.4 572.5,642.8 	"/>
	<polygon class="st0" points="584,649.4 595.5,642.8 607,649.4 607,662.7 595.5,669.3 584,662.7 	"/>
	<polygon class="st0" points="584,569.8 595.5,563.1 607,569.8 607,583 595.5,589.7 584,583 	"/>
	<polygon class="st0" points="584,609.6 595.5,603 607,609.6 607,622.9 595.5,629.5 584,622.9 	"/>
	<polygon class="st0" points="595.5,629.5 607,622.9 618.5,629.5 618.5,642.8 607,649.4 595.5,642.8 	"/>
</g>
<g id="CONNECTICUT">
	<polygon class="st0" points="1009.5,191.3 1021,184.7 1032.5,191.3 1032.5,204.6 1021,211.2 1009.5,204.6 	"/>
	<polygon class="st0" points="1021,171.4 1032.5,164.7 1044,171.4 1044,184.7 1032.5,191.3 1021,184.7 	"/>
	<polygon class="st0" points="1032.5,191.3 1044,184.7 1055.5,191.3 1055.5,204.6 1044,211.2 1032.5,204.6 	"/>
	<polygon class="st0" points="1044,171.4 1055.5,164.7 1067,171.4 1067,184.7 1055.5,191.3 1044,184.7 	"/>
	<polygon class="st0" points="1055.5,191.3 1067,184.7 1078.5,191.3 1078.5,204.6 1067,211.2 1055.5,204.6 	"/>
	<polygon class="st0" points="1044,211.2 1055.5,204.6 1067,211.2 1067,224.5 1055.5,231.1 1044,224.5 	"/>
	<polygon class="st0" points="998,171.4 1009.5,164.7 1021,171.4 1021,184.7 1009.5,191.3 998,184.7 	"/>
</g>
<text transform="matrix(1 0 0 1 365.1166 217.8598)" class="st1"><tspan x="0" y="0" class="st2 st3 st4">ND</tspan><tspan x="31.8" y="0" class="st2 st5 st4"> </tspan></text>
<text transform="matrix(1 0 0 1 401.3166 217.8598)" class="st6 st3 st4">3</text>
<text transform="matrix(1 0 0 1 666.1323 178.0228)" class="st2 st3 st4">MI</text>
<text transform="matrix(1 0 0 1 667.7323 200.0228)" class="st6 st3 st4">16</text>
<text transform="matrix(1 0 0 1 222.9965 217.86)" class="st1"><tspan x="0" y="0" class="st2 st3 st4">MT</tspan><tspan x="31.2" y="0" class="st2 st5 st4"> </tspan></text>
<text transform="matrix(1 0 0 1 259.7965 217.86)" class="st6 st3 st4">3</text>
<text transform="matrix(1 0 0 1 205.252 295.5344)" class="st2 st3 st4">ID</text>
<text transform="matrix(1 0 0 1 209.252 317.5344)" class="st6 st3 st4">4</text>
<text transform="matrix(1 0 0 1 19.7324 237.6993)" class="st1"><tspan x="0" y="0" class="st2 st3 st4">WA</tspan><tspan x="35" y="0" class="st2 st5 st4"> </tspan></text>
<text transform="matrix(1 0 0 1 59.5324 237.6993)" class="st6 st3 st4">12</text>
<text transform="matrix(1 0 0 1 30.0364 792.4997)" class="st2 st3 st4">AK</text>
<text transform="matrix(1 0 0 1 38.2364 814.4997)" class="st6 st3 st4">3</text>
<text transform="matrix(1 0 0 1 152.4243 361.9295)" class="st1"><tspan x="0" y="0" class="st2 st3 st4">NV</tspan><tspan x="29.2" y="0" class="st2 st5 st4"> </tspan></text>
<text transform="matrix(1 0 0 1 187.4243 361.9295)" class="st6 st3 st4">6</text>
<text transform="matrix(1 0 0 1 216.5243 440.4777)" class="st2 st3 st4">UT</text>
<text transform="matrix(1 0 0 1 223.7243 462.4777)" class="st6 st3 st4">6</text>
<text transform="matrix(1 0 0 1 227.9202 387.8482)" class="st1"><tspan x="0" y="0" class="st2 st3 st4">CO</tspan><tspan x="30.5" y="0" class="st2 st5 st4"> </tspan></text>
<text transform="matrix(1 0 0 1 262.6202 387.8482)" class="st6 st3 st4">9</text>
<text transform="matrix(1 0 0 1 156.3201 629.511)" class="st2 st3 st4">AZ</text>
<text transform="matrix(1 0 0 1 162.0201 651.511)" class="st6 st3 st4">11</text>
<text transform="matrix(1 0 0 1 181.6644 682.6271)" class="st2 st3 st4">NM</text>
<text transform="matrix(1 0 0 1 193.2644 704.6271)" class="st6 st3 st4">5</text>
<text transform="matrix(1 0 0 1 250.0883 538.4999)" class="st1"><tspan x="0" y="0" class="st2 st3 st4">OK</tspan><tspan x="29.5" y="0" class="st2 st5 st4"> </tspan></text>
<text transform="matrix(1 0 0 1 285.2883 538.4999)" class="st6 st3 st4">7</text>
<text transform="matrix(1 0 0 1 304.5038 482.1056)" class="st2 st3 st4">KS</text>
<text transform="matrix(1 0 0 1 310.4038 504.1056)" class="st6 st3 st4">6</text>
<text transform="matrix(1 0 0 1 292.4295 318.453)" class="st1"><tspan x="0" y="0" class="st2 st3 st4">NE</tspan><tspan x="27.6" y="0" class="st2 st5 st4"> </tspan></text>
<text transform="matrix(1 0 0 1 326.1295 318.453)" class="st6 st3 st4">5</text>
<text transform="matrix(1 0 0 1 449.3203 337.3718)" class="st1"><tspan x="0" y="0" class="st2 st3 st4">IA</tspan><tspan x="20.4" y="0" class="st2 st5 st4"> </tspan></text>
<text transform="matrix(1 0 0 1 474.5203 337.3718)" class="st6 st3 st4">6</text>
<text transform="matrix(1 0 0 1 423.1313 397.1273)" class="st2 st3 st4">MO</text>
<text transform="matrix(1 0 0 1 429.2313 419.1273)" class="st6 st3 st4">10</text>
<text transform="matrix(1 0 0 1 442.5287 217.8596)" class="st1"><tspan x="0" y="0" class="st2 st3 st4">MN</tspan><tspan x="35.1" y="0" class="st2 st5 st4"> </tspan></text>
<text transform="matrix(1 0 0 1 482.4287 217.8596)" class="st6 st3 st4">10</text>
<text transform="matrix(1 0 0 1 536.3246 217.8603)" class="st1"><tspan x="0" y="0" class="st2 st3 st4">WI</tspan><tspan x="26" y="0" class="st2 st5 st4"> </tspan></text>
<text transform="matrix(1 0 0 1 567.6246 217.8603)" class="st6 st3 st4">10</text>
<text transform="matrix(1 0 0 1 544.4882 298.9315)" class="st2 st3 st4">IL</text>
<text transform="matrix(1 0 0 1 539.4882 320.9315)" class="st6 st3 st4">20</text>
<text transform="matrix(1 0 0 1 386.5893 496.7202)" class="st2 st3 st4">AR</text>
<text transform="matrix(1 0 0 1 393.6893 518.7202)" class="st6 st3 st4">6</text>
<text transform="matrix(1 0 0 1 403.2167 586.3004)" class="st2 st3 st4">LA</text>
<text transform="matrix(1 0 0 1 409.4167 608.3004)" class="st6 st3 st4">8</text>
<text transform="matrix(1 0 0 1 523.2499 717.0999)" class="st2 st3 st4">MS</text>
<text transform="matrix(1 0 0 1 531.7499 739.0999)" class="st6 st3 st4">6</text>
<text transform="matrix(1 0 0 1 576.514 689.267)" class="st2 st3 st4">AL</text>
<text transform="matrix(1 0 0 1 582.714 711.267)" class="st6 st3 st4">9</text>
<text transform="matrix(1 0 0 1 675.144 518.5004)" class="st2 st3 st4">GA</text>
<text transform="matrix(1 0 0 1 678.944 540.5004)" class="st6 st3 st4">16</text>
<text transform="matrix(1 0 0 1 773.9272 700.1059)" class="st2 st3 st4">FL</text>
<text transform="matrix(1 0 0 1 772.7272 722.1059)" class="st6 st3 st4">29</text>
<text transform="matrix(1 0 0 1 466.8806 517.2553)" class="st2 st3 st4">TN</text>
<text transform="matrix(1 0 0 1 468.2806 539.2553)" class="st6 st3 st4">11</text>
<text transform="matrix(1 0 0 1 521.7888 459.1635)" class="st1"><tspan x="0" y="0" class="st2 st3 st4">KY</tspan><tspan x="26" y="0" class="st2 st5 st4"> </tspan></text>
<text transform="matrix(1 0 0 1 553.7888 459.1635)" class="st6 st3 st4">8</text>
<text transform="matrix(1 0 0 1 656.4684 400.269)" class="st1"><tspan x="0" y="0" class="st2 st3 st4">IN</tspan><tspan x="21.5" y="0" class="st2 st5 st4"> </tspan></text>
<text transform="matrix(1 0 0 1 683.1684 400.269)" class="st6 st3 st4">11</text>
<text transform="matrix(1 0 0 1 689.0327 324.0924)" class="st2 st3 st4">OH</text>
<text transform="matrix(1 0 0 1 694.2327 346.0924)" class="st6 st3 st4">18</text>
<text transform="matrix(1 0 0 1 853.7649 362.9298)" class="st2 st3 st4">WV</text>
<text transform="matrix(1 0 0 1 865.1649 384.9298)" class="st6 st3 st4">5</text>
<text transform="matrix(1 0 0 1 726.5527 423.6857)" class="st2 st3 st4">VA</text>
<text transform="matrix(1 0 0 1 730.8527 445.6857)" class="st6 st3 st4">13</text>
<text transform="matrix(1 0 0 1 937.4086 470.1621)" class="st2 st3 st4">DC</text>
<text transform="matrix(1 0 0 1 945.9086 492.1621)" class="st6 st3 st4">3</text>
<text transform="matrix(1 0 0 1 994.8569 407.3502)" class="st2 st3 st4">MD</text>
<text transform="matrix(1 0 0 1 1000.4568 429.3502)" class="st6 st3 st4">10</text>
<text transform="matrix(1 0 0 1 966.725 334.6739)" class="st1"><tspan x="0" y="0" class="st2 st3 st4">DE</tspan><tspan x="27.8" y="0" class="st2 st5 st4"> </tspan></text>
<text transform="matrix(1 0 0 1 1000.125 334.6739)" class="st6 st3 st4">3</text>
<text transform="matrix(1 0 0 1 1052.2563 312.8371)" class="st1"><tspan x="0" y="0" class="st2 st3 st4">NJ</tspan><tspan x="24.7" y="0" class="st2 st5 st4"> </tspan></text>
<text transform="matrix(1 0 0 1 1082.9563 312.8371)" class="st6 st3 st4">14</text>
<text transform="matrix(1 0 0 1 780.4208 212.2205)" class="st2 st3 st4">PA</text>
<text transform="matrix(1 0 0 1 780.3208 234.2205)" class="st6 st3 st4">20</text>
<text transform="matrix(1 0 0 1 894.348 76.1528)" class="st2 st3 st4">NY</text>
<text transform="matrix(1 0 0 1 895.748 98.1528)" class="st6 st3 st4">29</text>
<text transform="matrix(1 0 0 1 1157.8647 124.9066)" class="st2 st3 st4">MA</text>
<text transform="matrix(1 0 0 1 1166.7648 146.9066)" class="st6 st3 st4">11</text>
<text transform="matrix(1 0 0 1 1074.1053 229.9998)" class="st2 st3 st4">CT</text>
<text transform="matrix(1 0 0 1 1081.5054 251.9998)" class="st6 st3 st4">7</text>
<text transform="matrix(1 0 0 1 1149.0288 184.6625)" class="st2 st3 st4">RI</text>
<text transform="matrix(1 0 0 1 1152.1288 206.6625)" class="st6 st3 st4">4</text>
<text transform="matrix(1 0 0 1 1167.5605 20.3159)" class="st2 st3 st4">ME</text>
<text transform="matrix(1 0 0 1 1176.9606 42.3159)" class="st6 st3 st4">4</text>
<text transform="matrix(1 0 0 1 1051.2288 20.3157)" class="st2 st3 st4">NH</text>
<text transform="matrix(1 0 0 1 1060.4287 42.3157)" class="st6 st3 st4">4</text>
<text transform="matrix(1 0 0 1 995.9371 40.153)" class="st2 st3 st4">VT</text>
<text transform="matrix(1 0 0 1 1003.2371 62.153)" class="st6 st3 st4">3</text>
<text transform="matrix(1 0 0 1 867.2968 549.8365)" class="st1"><tspan x="0" y="0" class="st2 st3 st4">NC</tspan><tspan x="29.7" y="0" class="st2 st5 st4"> </tspan></text>
<text transform="matrix(1 0 0 1 901.4968 549.8365)" class="st6 st3 st4">15</text>
<text transform="matrix(1 0 0 1 788.5849 560.5779)" class="st2 st3 st4">SC</text>
<text transform="matrix(1 0 0 1 794.2849 582.5779)" class="st6 st3 st4">9</text>
<text transform="matrix(1 0 0 1 273.6841 649.4294)" class="st2 st3 st4">TX</text>
<text transform="matrix(1 0 0 1 274.1841 671.4294)" class="st6 st3 st4">38</text>
<text transform="matrix(1 0 0 1 1.220703e-04 346.4312)" class="st1"><tspan x="0" y="0" class="st2 st3 st4">OR</tspan><tspan x="29.4" y="0" class="st2 st5 st4"> </tspan></text>
<text transform="matrix(1 0 0 1 35.0001 346.4312)" class="st6 st3 st4">7</text>
<text transform="matrix(1 0 0 1 17.9606 556.4765)" class="st2 st3 st4">CA</text>
<text transform="matrix(1 0 0 1 19.7606 578.4765)" class="st6 st3 st4">55</text>
<text transform="matrix(1 0 0 1 150.412 793.4994)" class="st2 st3 st4">HI</text>
<text transform="matrix(1 0 0 1 154.612 815.4994)" class="st6 st3 st4">4</text>
<text transform="matrix(1 0 0 1 298.4745 217.8599)" class="st1"><tspan x="0" y="0" class="st2 st3 st4">WY</tspan><tspan x="33.3" y="0" class="st2 st5 st4"> </tspan></text>
<text transform="matrix(1 0 0 1 337.0745 217.8599)" class="st6 st3 st4">3</text>
<text transform="matrix(1 0 0 1 389.3246 300.2556)" class="st1"><tspan x="0" y="0" class="st2 st3 st4">SD</tspan><tspan x="27.8" y="0" class="st2 st5 st4"> </tspan></text>
<text transform="matrix(1 0 0 1 421.5246 300.2556)" class="st6 st3 st4">3</text>
</svg>
